<?xml version="1.0" encoding="UTF-8"?>
<svg enable-background="new 0 0 640 480" viewBox="0 0 640 480" xmlns="http://www.w3.org/2000/svg">
 <path transform="matrix(-1 -.00066272 .00066272 -1 365.8 445.12)" d="m55.529 64.578h254.89v315.84h-254.89z" fill="#008d33"/>
 <path transform="matrix(-1 -.00066081 .00066081 -1 874.47 444.25)" d="m309.86 64.061h254.89v315.84h-254.89z" fill="#fff"/>
 <path d="m349.94 330.55c-58.824 0-106.51-48.606-106.51-108.57s47.687-108.57 106.51-108.57c13.134 0 25.708 2.43 37.324 6.86-19.966-16.024-44.799-25.526-71.716-25.526-65.917 0-119.35 56.966-119.35 127.24s53.437 127.24 119.35 127.24c26.917 0 51.75-9.502 71.716-25.527-11.615 4.432-24.191 6.859-37.324 6.859z" fill="#f00"/>
 <path d="m309.63 250.75 21.622-29.125-21.018-29.565 34.382 11.563 21.622-29.125-0.373 36.272 34.383 11.564-34.614 10.853-0.373 36.274-21.018-29.564z" fill="#f00"/>
</svg>
