<?xml version="1.0" encoding="UTF-8"?>
<svg viewBox="0 0 210 140" xmlns="http://www.w3.org/2000/svg">
 <path d="m0.19832 93.476h209.82v46.54h-209.82z" fill="#dc0000" fill-rule="evenodd"/>
 <path d="m0.19832 0.39668h209.82v46.54h-209.82z" fill="#ffcb00" fill-rule="evenodd"/>
 <path d="m0.19832 46.936h209.82v46.54h-209.82z" fill="#0000ba" fill-rule="evenodd"/>
 <path transform="matrix(.35933 0 0 .32494 13.328 -110.9)" d="m266.186,534.45-10.408-7.432-10.357,7.505 3.852-12.196-10.338-7.531 12.79-.105 3.967-12.159 4.052,12.131 12.79.016-10.285,7.602 3.937,12.169z" fill="#fff" fill-rule="evenodd"/>
 <path transform="matrix(.35933 0 0 .32494 31.939 -108.83)" d="m266.186,534.45-10.408-7.432-10.357,7.505 3.852-12.196-10.338-7.531 12.79-.105 3.967-12.159 4.052,12.131 12.79.016-10.285,7.602 3.937,12.169z" fill="#fff" fill-rule="evenodd"/>
 <path transform="matrix(.35933 0 0 .32494 48.068 -99.731)" d="m266.186,534.45-10.408-7.432-10.357,7.505 3.852-12.196-10.338-7.531 12.79-.105 3.967-12.159 4.052,12.131 12.79.016-10.285,7.602 3.937,12.169z" fill="#fff" fill-rule="evenodd"/>
 <path transform="matrix(.35933 0 0 .32494 57.167 -86.083)" d="m266.186,534.45-10.408-7.432-10.357,7.505 3.852-12.196-10.338-7.531 12.79-.105 3.967-12.159 4.052,12.131 12.79.016-10.285,7.602 3.937,12.169z" fill="#fff" fill-rule="evenodd"/>
 <path transform="matrix(-.35933 0 0 .32494 178.5 -108.83)" d="m266.186,534.45-10.408-7.432-10.357,7.505 3.852-12.196-10.338-7.531 12.79-.105 3.967-12.159 4.052,12.131 12.79.016-10.285,7.602 3.937,12.169z" fill="#fff" fill-rule="evenodd"/>
 <path transform="matrix(-.35933 0 0 .32494 162.37 -99.731)" d="m266.186,534.45-10.408-7.432-10.357,7.505 3.852-12.196-10.338-7.531 12.79-.105 3.967-12.159 4.052,12.131 12.79.016-10.285,7.602 3.937,12.169z" fill="#fff" fill-rule="evenodd"/>
 <path transform="matrix(-.35933 0 0 .32494 153.28 -86.083)" d="m266.186,534.45-10.408-7.432-10.357,7.505 3.852-12.196-10.338-7.531 12.79-.105 3.967-12.159 4.052,12.131 12.79.016-10.285,7.602 3.937,12.169z" fill="#fff" fill-rule="evenodd"/>
</svg>
