<?xml version="1.0" encoding="UTF-8"?>
<svg viewBox="0 0 960.236197 496.06298" xmlns="http://www.w3.org/2000/svg">
 <path d="m0 136.96h959.78v208.93h-959.78z" fill="#fff" fill-rule="evenodd"/>
 <path transform="matrix(-1.5468 0 0 -1.5468 .00041909 -233.71)" d="m-619.34-472.52h618.06v107.96h-618.06z" fill="#087bce" fill-rule="evenodd"/>
 <path transform="matrix(-1.5468 0 0 -1.5468 .00041909 -233.71)" d="m-620.86-257.75h620.86v104.98h-620.86z" fill="#087bce" fill-rule="evenodd"/>
 <path transform="matrix(.33337 -.0016224 -.0036298 .31606 304.57 139.65)" d="m591.041,433.161-57.267-41.685-57.273,41.675 21.948-67.345-57.334-41.592 70.831.064 21.839-67.381 21.828,67.384 70.832-.051-57.341,41.582 21.937,67.349z" fill="#087bce" fill-rule="evenodd"/>
 <path transform="matrix(.33337 -.0016224 -.0036298 .31606 442.66 175.2)" d="m591.041,433.161-57.267-41.685-57.273,41.675 21.948-67.345-57.334-41.592 70.831.064 21.839-67.381 21.828,67.384 70.832-.051-57.341,41.582 21.937,67.349z" fill="#087bce" fill-rule="evenodd"/>
 <path transform="matrix(.33337 -.0016224 -.0036298 .31606 442.66 101.37)" d="m591.041,433.161-57.267-41.685-57.273,41.675 21.948-67.345-57.334-41.592 70.831.064 21.839-67.381 21.828,67.384 70.832-.051-57.341,41.582 21.937,67.349z" fill="#087bce" fill-rule="evenodd"/>
 <path transform="matrix(.33337 -.0016224 -.0036298 .31606 137.77 175.2)" d="m591.041,433.161-57.267-41.685-57.273,41.675 21.948-67.345-57.334-41.592 70.831.064 21.839-67.381 21.828,67.384 70.832-.051-57.341,41.582 21.937,67.349z" fill="#087bce" fill-rule="evenodd"/>
 <path transform="matrix(.33337 -.0016224 -.0036298 .31606 137.77 101.37)" d="m591.041,433.161-57.267-41.685-57.273,41.675 21.948-67.345-57.334-41.592 70.831.064 21.839-67.381 21.828,67.384 70.832-.051-57.341,41.582 21.937,67.349z" fill="#087bce" fill-rule="evenodd"/>
</svg>
