<?xml version="1.0" encoding="UTF-8"?>
<svg viewBox="0 0 868.110215 496.06298" xmlns="http://www.w3.org/2000/svg">
 <path d="m0-4e-6h868.11v496.06h-868.11z" fill="#fff" fill-rule="evenodd"/>
 <path d="m0 333.13h868.11v162.93h-868.11z" fill="#da0000" fill-rule="evenodd"/>
 <g transform="matrix(1.4724 0 0 1.4724 117.81 35.66)" fill="#fff" fill-rule="evenodd" font-size="12">
  <path d="m32.067 206.72h32.289v2.2217h-32.289z"/>
  <path d="m36.881 217.83h2.2217v2.1576h-2.2217z"/>
  <path transform="matrix(2.9784e-17 1 -1 1.2588e-16 0 0)" d="m217.76-64.44h2.2217v6.453h-2.2217z"/>
  <path d="m67.911 206.72h2.2217v13.266h-2.2217z"/>
  <path transform="matrix(5.6445e-17 1 -1 6.6421e-17 0 0)" d="m217.76-80.765h2.2217v12.229h-2.2217z"/>
  <path d="m57.987 212.57h2.2217v7.4157h-2.2217z"/>
  <path transform="translate(11.035 -1.5259e-5)" d="m67.911 206.72h2.2217v13.266h-2.2217z"/>
  <path d="m73.391 206.72h2.2217v13.266h-2.2217z"/>
  <path transform="matrix(5.4394e-17 1 -1 6.8926e-17 .009222 -1.5259e-5)" d="m212-43.903h2.2217v11.785h-2.2217z"/>
  <path transform="matrix(5.4394e-17 1 -1 6.8926e-17 0 0)" d="m212-69.772h2.2217v11.785h-2.2217z"/>
  <path d="m57.987 212.57h2.2217v7.4157h-2.2217z"/>
  <path d="m57.987 212.57h2.2217v7.4157h-2.2217z"/>
  <path d="m57.987 212.57h2.2217v7.4157h-2.2217z"/>
  <path transform="translate(-.17213 -1.5259e-5)" d="m32.299 212.57h2.2217v7.4157h-2.2217z"/>
  <path d="m51.082 212.57h2.2217v7.4157h-2.2217z"/>
  <path transform="translate(0 -1.5259e-5)" d="m41.691 212.57h2.2217v7.4157h-2.2217z"/>
  <path transform="matrix(4.598e-17 1 -1 8.1539e-17 0 0)" d="m217.76-52.641h2.2217v9.9621h-2.2217z"/>
  <path transform="matrix(2.9152e-17 1 -1 1.2861e-16 0 0)" d="m212-53.304h2.2217v6.3161h-2.2217z"/>
 </g>
 <g transform="matrix(1.4724 0 0 1.4724 39.725 35.66)" fill="#fff" fill-rule="evenodd" font-size="12">
  <path d="m32.067 206.72h32.289v2.2217h-32.289z"/>
  <path d="m36.881 217.83h2.2217v2.1576h-2.2217z"/>
  <path transform="matrix(2.9784e-17 1 -1 1.2588e-16 0 0)" d="m217.76-64.44h2.2217v6.453h-2.2217z"/>
  <path d="m67.911 206.72h2.2217v13.266h-2.2217z"/>
  <path transform="matrix(5.6445e-17 1 -1 6.6421e-17 0 0)" d="m217.76-80.765h2.2217v12.229h-2.2217z"/>
  <path d="m57.987 212.57h2.2217v7.4157h-2.2217z"/>
  <path transform="translate(11.035 -1.5259e-5)" d="m67.911 206.72h2.2217v13.266h-2.2217z"/>
  <path d="m73.391 206.72h2.2217v13.266h-2.2217z"/>
  <path transform="matrix(5.4394e-17 1 -1 6.8926e-17 .009222 -1.5259e-5)" d="m212-43.903h2.2217v11.785h-2.2217z"/>
  <path transform="matrix(5.4394e-17 1 -1 6.8926e-17 0 0)" d="m212-69.772h2.2217v11.785h-2.2217z"/>
  <path d="m57.987 212.57h2.2217v7.4157h-2.2217z"/>
  <path d="m57.987 212.57h2.2217v7.4157h-2.2217z"/>
  <path d="m57.987 212.57h2.2217v7.4157h-2.2217z"/>
  <path transform="translate(-.17213 -1.5259e-5)" d="m32.299 212.57h2.2217v7.4157h-2.2217z"/>
  <path d="m51.082 212.57h2.2217v7.4157h-2.2217z"/>
  <path transform="translate(0 -1.5259e-5)" d="m41.691 212.57h2.2217v7.4157h-2.2217z"/>
  <path transform="matrix(4.598e-17 1 -1 8.1539e-17 0 0)" d="m217.76-52.641h2.2217v9.9621h-2.2217z"/>
  <path transform="matrix(2.9152e-17 1 -1 1.2861e-16 0 0)" d="m212-53.304h2.2217v6.3161h-2.2217z"/>
 </g>
 <g transform="matrix(1.4724 0 0 1.4724 195.25 35.66)" fill="#fff" fill-rule="evenodd" font-size="12">
  <path d="m32.067 206.72h32.289v2.2217h-32.289z"/>
  <path d="m36.881 217.83h2.2217v2.1576h-2.2217z"/>
  <path transform="matrix(2.9784e-17 1 -1 1.2588e-16 0 0)" d="m217.76-64.44h2.2217v6.453h-2.2217z"/>
  <path d="m67.911 206.72h2.2217v13.266h-2.2217z"/>
  <path transform="matrix(5.6445e-17 1 -1 6.6421e-17 0 0)" d="m217.76-80.765h2.2217v12.229h-2.2217z"/>
  <path d="m57.987 212.57h2.2217v7.4157h-2.2217z"/>
  <path transform="translate(11.035 -1.5259e-5)" d="m67.911 206.72h2.2217v13.266h-2.2217z"/>
  <path d="m73.391 206.72h2.2217v13.266h-2.2217z"/>
  <path transform="matrix(5.4394e-17 1 -1 6.8926e-17 .009222 -1.5259e-5)" d="m212-43.903h2.2217v11.785h-2.2217z"/>
  <path transform="matrix(5.4394e-17 1 -1 6.8926e-17 0 0)" d="m212-69.772h2.2217v11.785h-2.2217z"/>
  <path d="m57.987 212.57h2.2217v7.4157h-2.2217z"/>
  <path d="m57.987 212.57h2.2217v7.4157h-2.2217z"/>
  <path d="m57.987 212.57h2.2217v7.4157h-2.2217z"/>
  <path transform="translate(-.17213 -1.5259e-5)" d="m32.299 212.57h2.2217v7.4157h-2.2217z"/>
  <path d="m51.082 212.57h2.2217v7.4157h-2.2217z"/>
  <path transform="translate(0 -1.5259e-5)" d="m41.691 212.57h2.2217v7.4157h-2.2217z"/>
  <path transform="matrix(4.598e-17 1 -1 8.1539e-17 0 0)" d="m217.76-52.641h2.2217v9.9621h-2.2217z"/>
  <path transform="matrix(2.9152e-17 1 -1 1.2861e-16 0 0)" d="m212-53.304h2.2217v6.3161h-2.2217z"/>
 </g>
 <g transform="matrix(1.4724 0 0 1.4724 742.06 35.66)" fill="#fff" fill-rule="evenodd" font-size="12">
  <path d="m32.067 206.72h32.289v2.2217h-32.289z"/>
  <path d="m36.881 217.83h2.2217v2.1576h-2.2217z"/>
  <path transform="matrix(2.9784e-17 1 -1 1.2588e-16 0 0)" d="m217.76-64.44h2.2217v6.453h-2.2217z"/>
  <path d="m67.911 206.72h2.2217v13.266h-2.2217z"/>
  <path transform="matrix(5.6445e-17 1 -1 6.6421e-17 0 0)" d="m217.76-80.765h2.2217v12.229h-2.2217z"/>
  <path d="m57.987 212.57h2.2217v7.4157h-2.2217z"/>
  <path transform="translate(11.035 -1.5259e-5)" d="m67.911 206.72h2.2217v13.266h-2.2217z"/>
  <path d="m73.391 206.72h2.2217v13.266h-2.2217z"/>
  <path transform="matrix(5.4394e-17 1 -1 6.8926e-17 .009222 -1.5259e-5)" d="m212-43.903h2.2217v11.785h-2.2217z"/>
  <path transform="matrix(5.4394e-17 1 -1 6.8926e-17 0 0)" d="m212-69.772h2.2217v11.785h-2.2217z"/>
  <path d="m57.987 212.57h2.2217v7.4157h-2.2217z"/>
  <path d="m57.987 212.57h2.2217v7.4157h-2.2217z"/>
  <path d="m57.987 212.57h2.2217v7.4157h-2.2217z"/>
  <path transform="translate(-.17213 -1.5259e-5)" d="m32.299 212.57h2.2217v7.4157h-2.2217z"/>
  <path d="m51.082 212.57h2.2217v7.4157h-2.2217z"/>
  <path transform="translate(0 -1.5259e-5)" d="m41.691 212.57h2.2217v7.4157h-2.2217z"/>
  <path transform="matrix(4.598e-17 1 -1 8.1539e-17 0 0)" d="m217.76-52.641h2.2217v9.9621h-2.2217z"/>
  <path transform="matrix(2.9152e-17 1 -1 1.2861e-16 0 0)" d="m212-53.304h2.2217v6.3161h-2.2217z"/>
 </g>
 <g transform="matrix(1.4724 0 0 1.4724 273.19 35.66)" fill="#fff" fill-rule="evenodd" font-size="12">
  <path d="m32.067 206.72h32.289v2.2217h-32.289z"/>
  <path d="m36.881 217.83h2.2217v2.1576h-2.2217z"/>
  <path transform="matrix(2.9784e-17 1 -1 1.2588e-16 0 0)" d="m217.76-64.44h2.2217v6.453h-2.2217z"/>
  <path d="m67.911 206.72h2.2217v13.266h-2.2217z"/>
  <path transform="matrix(5.6445e-17 1 -1 6.6421e-17 0 0)" d="m217.76-80.765h2.2217v12.229h-2.2217z"/>
  <path d="m57.987 212.57h2.2217v7.4157h-2.2217z"/>
  <path transform="translate(11.035 -1.5259e-5)" d="m67.911 206.72h2.2217v13.266h-2.2217z"/>
  <path d="m73.391 206.72h2.2217v13.266h-2.2217z"/>
  <path transform="matrix(5.4394e-17 1 -1 6.8926e-17 .009222 -1.5259e-5)" d="m212-43.903h2.2217v11.785h-2.2217z"/>
  <path transform="matrix(5.4394e-17 1 -1 6.8926e-17 0 0)" d="m212-69.772h2.2217v11.785h-2.2217z"/>
  <path d="m57.987 212.57h2.2217v7.4157h-2.2217z"/>
  <path d="m57.987 212.57h2.2217v7.4157h-2.2217z"/>
  <path d="m57.987 212.57h2.2217v7.4157h-2.2217z"/>
  <path transform="translate(-.17213 -1.5259e-5)" d="m32.299 212.57h2.2217v7.4157h-2.2217z"/>
  <path d="m51.082 212.57h2.2217v7.4157h-2.2217z"/>
  <path transform="translate(0 -1.5259e-5)" d="m41.691 212.57h2.2217v7.4157h-2.2217z"/>
  <path transform="matrix(4.598e-17 1 -1 8.1539e-17 0 0)" d="m217.76-52.641h2.2217v9.9621h-2.2217z"/>
  <path transform="matrix(2.9152e-17 1 -1 1.2861e-16 0 0)" d="m212-53.304h2.2217v6.3161h-2.2217z"/>
 </g>
 <g transform="matrix(1.4724 0 0 1.4724 351.41 35.66)" fill="#fff" fill-rule="evenodd" font-size="12">
  <path d="m32.067 206.72h32.289v2.2217h-32.289z"/>
  <path d="m36.881 217.83h2.2217v2.1576h-2.2217z"/>
  <path transform="matrix(2.9784e-17 1 -1 1.2588e-16 0 0)" d="m217.76-64.44h2.2217v6.453h-2.2217z"/>
  <path d="m67.911 206.72h2.2217v13.266h-2.2217z"/>
  <path transform="matrix(5.6445e-17 1 -1 6.6421e-17 0 0)" d="m217.76-80.765h2.2217v12.229h-2.2217z"/>
  <path d="m57.987 212.57h2.2217v7.4157h-2.2217z"/>
  <path transform="translate(11.035 -1.5259e-5)" d="m67.911 206.72h2.2217v13.266h-2.2217z"/>
  <path d="m73.391 206.72h2.2217v13.266h-2.2217z"/>
  <path transform="matrix(5.4394e-17 1 -1 6.8926e-17 .009222 -1.5259e-5)" d="m212-43.903h2.2217v11.785h-2.2217z"/>
  <path transform="matrix(5.4394e-17 1 -1 6.8926e-17 0 0)" d="m212-69.772h2.2217v11.785h-2.2217z"/>
  <path d="m57.987 212.57h2.2217v7.4157h-2.2217z"/>
  <path d="m57.987 212.57h2.2217v7.4157h-2.2217z"/>
  <path d="m57.987 212.57h2.2217v7.4157h-2.2217z"/>
  <path transform="translate(-.17213 -1.5259e-5)" d="m32.299 212.57h2.2217v7.4157h-2.2217z"/>
  <path d="m51.082 212.57h2.2217v7.4157h-2.2217z"/>
  <path transform="translate(0 -1.5259e-5)" d="m41.691 212.57h2.2217v7.4157h-2.2217z"/>
  <path transform="matrix(4.598e-17 1 -1 8.1539e-17 0 0)" d="m217.76-52.641h2.2217v9.9621h-2.2217z"/>
  <path transform="matrix(2.9152e-17 1 -1 1.2861e-16 0 0)" d="m212-53.304h2.2217v6.3161h-2.2217z"/>
 </g>
 <path d="m0-1.1e-5h868.11v162.93h-868.11z" fill="#239f40" fill-rule="evenodd"/>
 <g transform="matrix(1.4724 0 0 1.4724 430.09 35.66)" fill="#fff" fill-rule="evenodd" font-size="12">
  <path d="m32.067 206.72h32.289v2.2217h-32.289z"/>
  <path d="m36.881 217.83h2.2217v2.1576h-2.2217z"/>
  <path transform="matrix(2.9784e-17 1 -1 1.2588e-16 0 0)" d="m217.76-64.44h2.2217v6.453h-2.2217z"/>
  <path d="m67.911 206.72h2.2217v13.266h-2.2217z"/>
  <path transform="matrix(5.6445e-17 1 -1 6.6421e-17 0 0)" d="m217.76-80.765h2.2217v12.229h-2.2217z"/>
  <path d="m57.987 212.57h2.2217v7.4157h-2.2217z"/>
  <path transform="translate(11.035 -1.5259e-5)" d="m67.911 206.72h2.2217v13.266h-2.2217z"/>
  <path d="m73.391 206.72h2.2217v13.266h-2.2217z"/>
  <path transform="matrix(5.4394e-17 1 -1 6.8926e-17 .009222 -1.5259e-5)" d="m212-43.903h2.2217v11.785h-2.2217z"/>
  <path transform="matrix(5.4394e-17 1 -1 6.8926e-17 0 0)" d="m212-69.772h2.2217v11.785h-2.2217z"/>
  <path d="m57.987 212.57h2.2217v7.4157h-2.2217z"/>
  <path d="m57.987 212.57h2.2217v7.4157h-2.2217z"/>
  <path d="m57.987 212.57h2.2217v7.4157h-2.2217z"/>
  <path transform="translate(-.17213 -1.5259e-5)" d="m32.299 212.57h2.2217v7.4157h-2.2217z"/>
  <path d="m51.082 212.57h2.2217v7.4157h-2.2217z"/>
  <path transform="translate(0 -1.5259e-5)" d="m41.691 212.57h2.2217v7.4157h-2.2217z"/>
  <path transform="matrix(4.598e-17 1 -1 8.1539e-17 0 0)" d="m217.76-52.641h2.2217v9.9621h-2.2217z"/>
  <path transform="matrix(2.9152e-17 1 -1 1.2861e-16 0 0)" d="m212-53.304h2.2217v6.3161h-2.2217z"/>
 </g>
 <g transform="matrix(1.4724 0 0 1.4724 508.32 35.66)" fill="#fff" fill-rule="evenodd" font-size="12">
  <path d="m32.067 206.72h32.289v2.2217h-32.289z"/>
  <path d="m36.881 217.83h2.2217v2.1576h-2.2217z"/>
  <path transform="matrix(2.9784e-17 1 -1 1.2588e-16 0 0)" d="m217.76-64.44h2.2217v6.453h-2.2217z"/>
  <path d="m67.911 206.72h2.2217v13.266h-2.2217z"/>
  <path transform="matrix(5.6445e-17 1 -1 6.6421e-17 0 0)" d="m217.76-80.765h2.2217v12.229h-2.2217z"/>
  <path d="m57.987 212.57h2.2217v7.4157h-2.2217z"/>
  <path transform="translate(11.035 -1.5259e-5)" d="m67.911 206.72h2.2217v13.266h-2.2217z"/>
  <path d="m73.391 206.72h2.2217v13.266h-2.2217z"/>
  <path transform="matrix(5.4394e-17 1 -1 6.8926e-17 .009222 -1.5259e-5)" d="m212-43.903h2.2217v11.785h-2.2217z"/>
  <path transform="matrix(5.4394e-17 1 -1 6.8926e-17 0 0)" d="m212-69.772h2.2217v11.785h-2.2217z"/>
  <path d="m57.987 212.57h2.2217v7.4157h-2.2217z"/>
  <path d="m57.987 212.57h2.2217v7.4157h-2.2217z"/>
  <path d="m57.987 212.57h2.2217v7.4157h-2.2217z"/>
  <path transform="translate(-.17213 -1.5259e-5)" d="m32.299 212.57h2.2217v7.4157h-2.2217z"/>
  <path d="m51.082 212.57h2.2217v7.4157h-2.2217z"/>
  <path transform="translate(0 -1.5259e-5)" d="m41.691 212.57h2.2217v7.4157h-2.2217z"/>
  <path transform="matrix(4.598e-17 1 -1 8.1539e-17 0 0)" d="m217.76-52.641h2.2217v9.9621h-2.2217z"/>
  <path transform="matrix(2.9152e-17 1 -1 1.2861e-16 0 0)" d="m212-53.304h2.2217v6.3161h-2.2217z"/>
 </g>
 <g transform="matrix(1.4724 0 0 1.4724 586.54 35.66)" fill="#fff" fill-rule="evenodd" font-size="12">
  <path d="m32.067 206.72h32.289v2.2217h-32.289z"/>
  <path d="m36.881 217.83h2.2217v2.1576h-2.2217z"/>
  <path transform="matrix(2.9784e-17 1 -1 1.2588e-16 0 0)" d="m217.76-64.44h2.2217v6.453h-2.2217z"/>
  <path d="m67.911 206.72h2.2217v13.266h-2.2217z"/>
  <path transform="matrix(5.6445e-17 1 -1 6.6421e-17 0 0)" d="m217.76-80.765h2.2217v12.229h-2.2217z"/>
  <path d="m57.987 212.57h2.2217v7.4157h-2.2217z"/>
  <path transform="translate(11.035 -1.5259e-5)" d="m67.911 206.72h2.2217v13.266h-2.2217z"/>
  <path d="m73.391 206.72h2.2217v13.266h-2.2217z"/>
  <path transform="matrix(5.4394e-17 1 -1 6.8926e-17 .009222 -1.5259e-5)" d="m212-43.903h2.2217v11.785h-2.2217z"/>
  <path transform="matrix(5.4394e-17 1 -1 6.8926e-17 0 0)" d="m212-69.772h2.2217v11.785h-2.2217z"/>
  <path d="m57.987 212.57h2.2217v7.4157h-2.2217z"/>
  <path d="m57.987 212.57h2.2217v7.4157h-2.2217z"/>
  <path d="m57.987 212.57h2.2217v7.4157h-2.2217z"/>
  <path transform="translate(-.17213 -1.5259e-5)" d="m32.299 212.57h2.2217v7.4157h-2.2217z"/>
  <path d="m51.082 212.57h2.2217v7.4157h-2.2217z"/>
  <path transform="translate(0 -1.5259e-5)" d="m41.691 212.57h2.2217v7.4157h-2.2217z"/>
  <path transform="matrix(4.598e-17 1 -1 8.1539e-17 0 0)" d="m217.76-52.641h2.2217v9.9621h-2.2217z"/>
  <path transform="matrix(2.9152e-17 1 -1 1.2861e-16 0 0)" d="m212-53.304h2.2217v6.3161h-2.2217z"/>
 </g>
 <g transform="matrix(1.4724 0 0 1.4724 665.22 35.66)" fill="#fff" fill-rule="evenodd" font-size="12">
  <path d="m32.067 206.72h32.289v2.2217h-32.289z"/>
  <path d="m36.881 217.83h2.2217v2.1576h-2.2217z"/>
  <path transform="matrix(2.9784e-17 1 -1 1.2588e-16 0 0)" d="m217.76-64.44h2.2217v6.453h-2.2217z"/>
  <path d="m67.911 206.72h2.2217v13.266h-2.2217z"/>
  <path transform="matrix(5.6445e-17 1 -1 6.6421e-17 0 0)" d="m217.76-80.765h2.2217v12.229h-2.2217z"/>
  <path d="m57.987 212.57h2.2217v7.4157h-2.2217z"/>
  <path transform="translate(11.035 -1.5259e-5)" d="m67.911 206.72h2.2217v13.266h-2.2217z"/>
  <path d="m73.391 206.72h2.2217v13.266h-2.2217z"/>
  <path transform="matrix(5.4394e-17 1 -1 6.8926e-17 .009222 -1.5259e-5)" d="m212-43.903h2.2217v11.785h-2.2217z"/>
  <path transform="matrix(5.4394e-17 1 -1 6.8926e-17 0 0)" d="m212-69.772h2.2217v11.785h-2.2217z"/>
  <path d="m57.987 212.57h2.2217v7.4157h-2.2217z"/>
  <path d="m57.987 212.57h2.2217v7.4157h-2.2217z"/>
  <path d="m57.987 212.57h2.2217v7.4157h-2.2217z"/>
  <path transform="translate(-.17213 -1.5259e-5)" d="m32.299 212.57h2.2217v7.4157h-2.2217z"/>
  <path d="m51.082 212.57h2.2217v7.4157h-2.2217z"/>
  <path transform="translate(0 -1.5259e-5)" d="m41.691 212.57h2.2217v7.4157h-2.2217z"/>
  <path transform="matrix(4.598e-17 1 -1 8.1539e-17 0 0)" d="m217.76-52.641h2.2217v9.9621h-2.2217z"/>
  <path transform="matrix(2.9152e-17 1 -1 1.2861e-16 0 0)" d="m212-53.304h2.2217v6.3161h-2.2217z"/>
 </g>
 <g transform="matrix(1.4724 0 0 1.4724 -39.296 35.66)" fill="#fff" fill-rule="evenodd" font-size="12">
  <path d="m32.067 206.72h32.289v2.2217h-32.289z"/>
  <path d="m36.881 217.83h2.2217v2.1576h-2.2217z"/>
  <path transform="matrix(2.9784e-17 1 -1 1.2588e-16 0 0)" d="m217.76-64.44h2.2217v6.453h-2.2217z"/>
  <path d="m67.911 206.72h2.2217v13.266h-2.2217z"/>
  <path transform="matrix(5.6445e-17 1 -1 6.6421e-17 0 0)" d="m217.76-80.765h2.2217v12.229h-2.2217z"/>
  <path d="m57.987 212.57h2.2217v7.4157h-2.2217z"/>
  <path transform="translate(11.035 -1.5259e-5)" d="m67.911 206.72h2.2217v13.266h-2.2217z"/>
  <path d="m73.391 206.72h2.2217v13.266h-2.2217z"/>
  <path transform="matrix(5.4394e-17 1 -1 6.8926e-17 .009222 -1.5259e-5)" d="m212-43.903h2.2217v11.785h-2.2217z"/>
  <path transform="matrix(5.4394e-17 1 -1 6.8926e-17 0 0)" d="m212-69.772h2.2217v11.785h-2.2217z"/>
  <path d="m57.987 212.57h2.2217v7.4157h-2.2217z"/>
  <path d="m57.987 212.57h2.2217v7.4157h-2.2217z"/>
  <path d="m57.987 212.57h2.2217v7.4157h-2.2217z"/>
  <path transform="translate(-.17213 -1.5259e-5)" d="m32.299 212.57h2.2217v7.4157h-2.2217z"/>
  <path d="m51.082 212.57h2.2217v7.4157h-2.2217z"/>
  <path transform="translate(0 -1.5259e-5)" d="m41.691 212.57h2.2217v7.4157h-2.2217z"/>
  <path transform="matrix(4.598e-17 1 -1 8.1539e-17 0 0)" d="m217.76-52.641h2.2217v9.9621h-2.2217z"/>
  <path transform="matrix(2.9152e-17 1 -1 1.2861e-16 0 0)" d="m212-53.304h2.2217v6.3161h-2.2217z"/>
 </g>
 <g transform="matrix(1.4724 0 0 1.4724 117.81 -165.4)" fill="#fff" fill-rule="evenodd" font-size="12">
  <path d="m32.067 206.72h32.289v2.2217h-32.289z"/>
  <path d="m36.881 217.83h2.2217v2.1576h-2.2217z"/>
  <path transform="matrix(2.9784e-17 1 -1 1.2588e-16 0 0)" d="m217.76-64.44h2.2217v6.453h-2.2217z"/>
  <path d="m67.911 206.72h2.2217v13.266h-2.2217z"/>
  <path transform="matrix(5.6445e-17 1 -1 6.6421e-17 0 0)" d="m217.76-80.765h2.2217v12.229h-2.2217z"/>
  <path d="m57.987 212.57h2.2217v7.4157h-2.2217z"/>
  <path transform="translate(11.035 -1.5259e-5)" d="m67.911 206.72h2.2217v13.266h-2.2217z"/>
  <path d="m73.391 206.72h2.2217v13.266h-2.2217z"/>
  <path transform="matrix(5.4394e-17 1 -1 6.8926e-17 .009222 -1.5259e-5)" d="m212-43.903h2.2217v11.785h-2.2217z"/>
  <path transform="matrix(5.4394e-17 1 -1 6.8926e-17 0 0)" d="m212-69.772h2.2217v11.785h-2.2217z"/>
  <path d="m57.987 212.57h2.2217v7.4157h-2.2217z"/>
  <path d="m57.987 212.57h2.2217v7.4157h-2.2217z"/>
  <path d="m57.987 212.57h2.2217v7.4157h-2.2217z"/>
  <path transform="translate(-.17213 -1.5259e-5)" d="m32.299 212.57h2.2217v7.4157h-2.2217z"/>
  <path d="m51.082 212.57h2.2217v7.4157h-2.2217z"/>
  <path transform="translate(0 -1.5259e-5)" d="m41.691 212.57h2.2217v7.4157h-2.2217z"/>
  <path transform="matrix(4.598e-17 1 -1 8.1539e-17 0 0)" d="m217.76-52.641h2.2217v9.9621h-2.2217z"/>
  <path transform="matrix(2.9152e-17 1 -1 1.2861e-16 0 0)" d="m212-53.304h2.2217v6.3161h-2.2217z"/>
 </g>
 <g transform="matrix(1.4724 0 0 1.4724 39.725 -165.4)" fill="#fff" fill-rule="evenodd" font-size="12">
  <path d="m32.067 206.72h32.289v2.2217h-32.289z"/>
  <path d="m36.881 217.83h2.2217v2.1576h-2.2217z"/>
  <path transform="matrix(2.9784e-17 1 -1 1.2588e-16 0 0)" d="m217.76-64.44h2.2217v6.453h-2.2217z"/>
  <path d="m67.911 206.72h2.2217v13.266h-2.2217z"/>
  <path transform="matrix(5.6445e-17 1 -1 6.6421e-17 0 0)" d="m217.76-80.765h2.2217v12.229h-2.2217z"/>
  <path d="m57.987 212.57h2.2217v7.4157h-2.2217z"/>
  <path transform="translate(11.035 -1.5259e-5)" d="m67.911 206.72h2.2217v13.266h-2.2217z"/>
  <path d="m73.391 206.72h2.2217v13.266h-2.2217z"/>
  <path transform="matrix(5.4394e-17 1 -1 6.8926e-17 .009222 -1.5259e-5)" d="m212-43.903h2.2217v11.785h-2.2217z"/>
  <path transform="matrix(5.4394e-17 1 -1 6.8926e-17 0 0)" d="m212-69.772h2.2217v11.785h-2.2217z"/>
  <path d="m57.987 212.57h2.2217v7.4157h-2.2217z"/>
  <path d="m57.987 212.57h2.2217v7.4157h-2.2217z"/>
  <path d="m57.987 212.57h2.2217v7.4157h-2.2217z"/>
  <path transform="translate(-.17213 -1.5259e-5)" d="m32.299 212.57h2.2217v7.4157h-2.2217z"/>
  <path d="m51.082 212.57h2.2217v7.4157h-2.2217z"/>
  <path transform="translate(0 -1.5259e-5)" d="m41.691 212.57h2.2217v7.4157h-2.2217z"/>
  <path transform="matrix(4.598e-17 1 -1 8.1539e-17 0 0)" d="m217.76-52.641h2.2217v9.9621h-2.2217z"/>
  <path transform="matrix(2.9152e-17 1 -1 1.2861e-16 0 0)" d="m212-53.304h2.2217v6.3161h-2.2217z"/>
 </g>
 <g transform="matrix(1.4724 0 0 1.4724 195.25 -165.4)" fill="#fff" fill-rule="evenodd" font-size="12">
  <path d="m32.067 206.72h32.289v2.2217h-32.289z"/>
  <path d="m36.881 217.83h2.2217v2.1576h-2.2217z"/>
  <path transform="matrix(2.9784e-17 1 -1 1.2588e-16 0 0)" d="m217.76-64.44h2.2217v6.453h-2.2217z"/>
  <path d="m67.911 206.72h2.2217v13.266h-2.2217z"/>
  <path transform="matrix(5.6445e-17 1 -1 6.6421e-17 0 0)" d="m217.76-80.765h2.2217v12.229h-2.2217z"/>
  <path d="m57.987 212.57h2.2217v7.4157h-2.2217z"/>
  <path transform="translate(11.035 -1.5259e-5)" d="m67.911 206.72h2.2217v13.266h-2.2217z"/>
  <path d="m73.391 206.72h2.2217v13.266h-2.2217z"/>
  <path transform="matrix(5.4394e-17 1 -1 6.8926e-17 .009222 -1.5259e-5)" d="m212-43.903h2.2217v11.785h-2.2217z"/>
  <path transform="matrix(5.4394e-17 1 -1 6.8926e-17 0 0)" d="m212-69.772h2.2217v11.785h-2.2217z"/>
  <path d="m57.987 212.57h2.2217v7.4157h-2.2217z"/>
  <path d="m57.987 212.57h2.2217v7.4157h-2.2217z"/>
  <path d="m57.987 212.57h2.2217v7.4157h-2.2217z"/>
  <path transform="translate(-.17213 -1.5259e-5)" d="m32.299 212.57h2.2217v7.4157h-2.2217z"/>
  <path d="m51.082 212.57h2.2217v7.4157h-2.2217z"/>
  <path transform="translate(0 -1.5259e-5)" d="m41.691 212.57h2.2217v7.4157h-2.2217z"/>
  <path transform="matrix(4.598e-17 1 -1 8.1539e-17 0 0)" d="m217.76-52.641h2.2217v9.9621h-2.2217z"/>
  <path transform="matrix(2.9152e-17 1 -1 1.2861e-16 0 0)" d="m212-53.304h2.2217v6.3161h-2.2217z"/>
 </g>
 <g transform="matrix(1.4724 0 0 1.4724 742.06 -165.4)" fill="#fff" fill-rule="evenodd" font-size="12">
  <path d="m32.067 206.72h32.289v2.2217h-32.289z"/>
  <path d="m36.881 217.83h2.2217v2.1576h-2.2217z"/>
  <path transform="matrix(2.9784e-17 1 -1 1.2588e-16 0 0)" d="m217.76-64.44h2.2217v6.453h-2.2217z"/>
  <path d="m67.911 206.72h2.2217v13.266h-2.2217z"/>
  <path transform="matrix(5.6445e-17 1 -1 6.6421e-17 0 0)" d="m217.76-80.765h2.2217v12.229h-2.2217z"/>
  <path d="m57.987 212.57h2.2217v7.4157h-2.2217z"/>
  <path transform="translate(11.035 -1.5259e-5)" d="m67.911 206.72h2.2217v13.266h-2.2217z"/>
  <path d="m73.391 206.72h2.2217v13.266h-2.2217z"/>
  <path transform="matrix(5.4394e-17 1 -1 6.8926e-17 .009222 -1.5259e-5)" d="m212-43.903h2.2217v11.785h-2.2217z"/>
  <path transform="matrix(5.4394e-17 1 -1 6.8926e-17 0 0)" d="m212-69.772h2.2217v11.785h-2.2217z"/>
  <path d="m57.987 212.57h2.2217v7.4157h-2.2217z"/>
  <path d="m57.987 212.57h2.2217v7.4157h-2.2217z"/>
  <path d="m57.987 212.57h2.2217v7.4157h-2.2217z"/>
  <path transform="translate(-.17213 -1.5259e-5)" d="m32.299 212.57h2.2217v7.4157h-2.2217z"/>
  <path d="m51.082 212.57h2.2217v7.4157h-2.2217z"/>
  <path transform="translate(0 -1.5259e-5)" d="m41.691 212.57h2.2217v7.4157h-2.2217z"/>
  <path transform="matrix(4.598e-17 1 -1 8.1539e-17 0 0)" d="m217.76-52.641h2.2217v9.9621h-2.2217z"/>
  <path transform="matrix(2.9152e-17 1 -1 1.2861e-16 0 0)" d="m212-53.304h2.2217v6.3161h-2.2217z"/>
 </g>
 <g transform="matrix(1.4724 0 0 1.4724 273.19 -165.4)" fill="#fff" fill-rule="evenodd" font-size="12">
  <path d="m32.067 206.72h32.289v2.2217h-32.289z"/>
  <path d="m36.881 217.83h2.2217v2.1576h-2.2217z"/>
  <path transform="matrix(2.9784e-17 1 -1 1.2588e-16 0 0)" d="m217.76-64.44h2.2217v6.453h-2.2217z"/>
  <path d="m67.911 206.72h2.2217v13.266h-2.2217z"/>
  <path transform="matrix(5.6445e-17 1 -1 6.6421e-17 0 0)" d="m217.76-80.765h2.2217v12.229h-2.2217z"/>
  <path d="m57.987 212.57h2.2217v7.4157h-2.2217z"/>
  <path transform="translate(11.035 -1.5259e-5)" d="m67.911 206.72h2.2217v13.266h-2.2217z"/>
  <path d="m73.391 206.72h2.2217v13.266h-2.2217z"/>
  <path transform="matrix(5.4394e-17 1 -1 6.8926e-17 .009222 -1.5259e-5)" d="m212-43.903h2.2217v11.785h-2.2217z"/>
  <path transform="matrix(5.4394e-17 1 -1 6.8926e-17 0 0)" d="m212-69.772h2.2217v11.785h-2.2217z"/>
  <path d="m57.987 212.57h2.2217v7.4157h-2.2217z"/>
  <path d="m57.987 212.57h2.2217v7.4157h-2.2217z"/>
  <path d="m57.987 212.57h2.2217v7.4157h-2.2217z"/>
  <path transform="translate(-.17213 -1.5259e-5)" d="m32.299 212.57h2.2217v7.4157h-2.2217z"/>
  <path d="m51.082 212.57h2.2217v7.4157h-2.2217z"/>
  <path transform="translate(0 -1.5259e-5)" d="m41.691 212.57h2.2217v7.4157h-2.2217z"/>
  <path transform="matrix(4.598e-17 1 -1 8.1539e-17 0 0)" d="m217.76-52.641h2.2217v9.9621h-2.2217z"/>
  <path transform="matrix(2.9152e-17 1 -1 1.2861e-16 0 0)" d="m212-53.304h2.2217v6.3161h-2.2217z"/>
 </g>
 <g transform="matrix(1.4724 0 0 1.4724 351.41 -165.4)" fill="#fff" fill-rule="evenodd" font-size="12">
  <path d="m32.067 206.72h32.289v2.2217h-32.289z"/>
  <path d="m36.881 217.83h2.2217v2.1576h-2.2217z"/>
  <path transform="matrix(2.9784e-17 1 -1 1.2588e-16 0 0)" d="m217.76-64.44h2.2217v6.453h-2.2217z"/>
  <path d="m67.911 206.72h2.2217v13.266h-2.2217z"/>
  <path transform="matrix(5.6445e-17 1 -1 6.6421e-17 0 0)" d="m217.76-80.765h2.2217v12.229h-2.2217z"/>
  <path d="m57.987 212.57h2.2217v7.4157h-2.2217z"/>
  <path transform="translate(11.035 -1.5259e-5)" d="m67.911 206.72h2.2217v13.266h-2.2217z"/>
  <path d="m73.391 206.72h2.2217v13.266h-2.2217z"/>
  <path transform="matrix(5.4394e-17 1 -1 6.8926e-17 .009222 -1.5259e-5)" d="m212-43.903h2.2217v11.785h-2.2217z"/>
  <path transform="matrix(5.4394e-17 1 -1 6.8926e-17 0 0)" d="m212-69.772h2.2217v11.785h-2.2217z"/>
  <path d="m57.987 212.57h2.2217v7.4157h-2.2217z"/>
  <path d="m57.987 212.57h2.2217v7.4157h-2.2217z"/>
  <path d="m57.987 212.57h2.2217v7.4157h-2.2217z"/>
  <path transform="translate(-.17213 -1.5259e-5)" d="m32.299 212.57h2.2217v7.4157h-2.2217z"/>
  <path d="m51.082 212.57h2.2217v7.4157h-2.2217z"/>
  <path transform="translate(0 -1.5259e-5)" d="m41.691 212.57h2.2217v7.4157h-2.2217z"/>
  <path transform="matrix(4.598e-17 1 -1 8.1539e-17 0 0)" d="m217.76-52.641h2.2217v9.9621h-2.2217z"/>
  <path transform="matrix(2.9152e-17 1 -1 1.2861e-16 0 0)" d="m212-53.304h2.2217v6.3161h-2.2217z"/>
 </g>
 <g transform="matrix(1.4724 0 0 1.4724 430.09 -165.4)" fill="#fff" fill-rule="evenodd" font-size="12">
  <path d="m32.067 206.72h32.289v2.2217h-32.289z"/>
  <path d="m36.881 217.83h2.2217v2.1576h-2.2217z"/>
  <path transform="matrix(2.9784e-17 1 -1 1.2588e-16 0 0)" d="m217.76-64.44h2.2217v6.453h-2.2217z"/>
  <path d="m67.911 206.72h2.2217v13.266h-2.2217z"/>
  <path transform="matrix(5.6445e-17 1 -1 6.6421e-17 0 0)" d="m217.76-80.765h2.2217v12.229h-2.2217z"/>
  <path d="m57.987 212.57h2.2217v7.4157h-2.2217z"/>
  <path transform="translate(11.035 -1.5259e-5)" d="m67.911 206.72h2.2217v13.266h-2.2217z"/>
  <path d="m73.391 206.72h2.2217v13.266h-2.2217z"/>
  <path transform="matrix(5.4394e-17 1 -1 6.8926e-17 .009222 -1.5259e-5)" d="m212-43.903h2.2217v11.785h-2.2217z"/>
  <path transform="matrix(5.4394e-17 1 -1 6.8926e-17 0 0)" d="m212-69.772h2.2217v11.785h-2.2217z"/>
  <path d="m57.987 212.57h2.2217v7.4157h-2.2217z"/>
  <path d="m57.987 212.57h2.2217v7.4157h-2.2217z"/>
  <path d="m57.987 212.57h2.2217v7.4157h-2.2217z"/>
  <path transform="translate(-.17213 -1.5259e-5)" d="m32.299 212.57h2.2217v7.4157h-2.2217z"/>
  <path d="m51.082 212.57h2.2217v7.4157h-2.2217z"/>
  <path transform="translate(0 -1.5259e-5)" d="m41.691 212.57h2.2217v7.4157h-2.2217z"/>
  <path transform="matrix(4.598e-17 1 -1 8.1539e-17 0 0)" d="m217.76-52.641h2.2217v9.9621h-2.2217z"/>
  <path transform="matrix(2.9152e-17 1 -1 1.2861e-16 0 0)" d="m212-53.304h2.2217v6.3161h-2.2217z"/>
 </g>
 <g transform="matrix(1.4724 0 0 1.4724 508.32 -165.4)" fill="#fff" fill-rule="evenodd" font-size="12">
  <path d="m32.067 206.72h32.289v2.2217h-32.289z"/>
  <path d="m36.881 217.83h2.2217v2.1576h-2.2217z"/>
  <path transform="matrix(2.9784e-17 1 -1 1.2588e-16 0 0)" d="m217.76-64.44h2.2217v6.453h-2.2217z"/>
  <path d="m67.911 206.72h2.2217v13.266h-2.2217z"/>
  <path transform="matrix(5.6445e-17 1 -1 6.6421e-17 0 0)" d="m217.76-80.765h2.2217v12.229h-2.2217z"/>
  <path d="m57.987 212.57h2.2217v7.4157h-2.2217z"/>
  <path transform="translate(11.035 -1.5259e-5)" d="m67.911 206.72h2.2217v13.266h-2.2217z"/>
  <path d="m73.391 206.72h2.2217v13.266h-2.2217z"/>
  <path transform="matrix(5.4394e-17 1 -1 6.8926e-17 .009222 -1.5259e-5)" d="m212-43.903h2.2217v11.785h-2.2217z"/>
  <path transform="matrix(5.4394e-17 1 -1 6.8926e-17 0 0)" d="m212-69.772h2.2217v11.785h-2.2217z"/>
  <path d="m57.987 212.57h2.2217v7.4157h-2.2217z"/>
  <path d="m57.987 212.57h2.2217v7.4157h-2.2217z"/>
  <path d="m57.987 212.57h2.2217v7.4157h-2.2217z"/>
  <path transform="translate(-.17213 -1.5259e-5)" d="m32.299 212.57h2.2217v7.4157h-2.2217z"/>
  <path d="m51.082 212.57h2.2217v7.4157h-2.2217z"/>
  <path transform="translate(0 -1.5259e-5)" d="m41.691 212.57h2.2217v7.4157h-2.2217z"/>
  <path transform="matrix(4.598e-17 1 -1 8.1539e-17 0 0)" d="m217.76-52.641h2.2217v9.9621h-2.2217z"/>
  <path transform="matrix(2.9152e-17 1 -1 1.2861e-16 0 0)" d="m212-53.304h2.2217v6.3161h-2.2217z"/>
 </g>
 <g transform="matrix(1.4724 0 0 1.4724 586.54 -165.4)" fill="#fff" fill-rule="evenodd" font-size="12">
  <path d="m32.067 206.72h32.289v2.2217h-32.289z"/>
  <path d="m36.881 217.83h2.2217v2.1576h-2.2217z"/>
  <path transform="matrix(2.9784e-17 1 -1 1.2588e-16 0 0)" d="m217.76-64.44h2.2217v6.453h-2.2217z"/>
  <path d="m67.911 206.72h2.2217v13.266h-2.2217z"/>
  <path transform="matrix(5.6445e-17 1 -1 6.6421e-17 0 0)" d="m217.76-80.765h2.2217v12.229h-2.2217z"/>
  <path d="m57.987 212.57h2.2217v7.4157h-2.2217z"/>
  <path transform="translate(11.035 -1.5259e-5)" d="m67.911 206.72h2.2217v13.266h-2.2217z"/>
  <path d="m73.391 206.72h2.2217v13.266h-2.2217z"/>
  <path transform="matrix(5.4394e-17 1 -1 6.8926e-17 .009222 -1.5259e-5)" d="m212-43.903h2.2217v11.785h-2.2217z"/>
  <path transform="matrix(5.4394e-17 1 -1 6.8926e-17 0 0)" d="m212-69.772h2.2217v11.785h-2.2217z"/>
  <path d="m57.987 212.57h2.2217v7.4157h-2.2217z"/>
  <path d="m57.987 212.57h2.2217v7.4157h-2.2217z"/>
  <path d="m57.987 212.57h2.2217v7.4157h-2.2217z"/>
  <path transform="translate(-.17213 -1.5259e-5)" d="m32.299 212.57h2.2217v7.4157h-2.2217z"/>
  <path d="m51.082 212.57h2.2217v7.4157h-2.2217z"/>
  <path transform="translate(0 -1.5259e-5)" d="m41.691 212.57h2.2217v7.4157h-2.2217z"/>
  <path transform="matrix(4.598e-17 1 -1 8.1539e-17 0 0)" d="m217.76-52.641h2.2217v9.9621h-2.2217z"/>
  <path transform="matrix(2.9152e-17 1 -1 1.2861e-16 0 0)" d="m212-53.304h2.2217v6.3161h-2.2217z"/>
 </g>
 <g transform="matrix(1.4724 0 0 1.4724 665.22 -165.4)" fill="#fff" fill-rule="evenodd" font-size="12">
  <path d="m32.067 206.72h32.289v2.2217h-32.289z"/>
  <path d="m36.881 217.83h2.2217v2.1576h-2.2217z"/>
  <path transform="matrix(2.9784e-17 1 -1 1.2588e-16 0 0)" d="m217.76-64.44h2.2217v6.453h-2.2217z"/>
  <path d="m67.911 206.72h2.2217v13.266h-2.2217z"/>
  <path transform="matrix(5.6445e-17 1 -1 6.6421e-17 0 0)" d="m217.76-80.765h2.2217v12.229h-2.2217z"/>
  <path d="m57.987 212.57h2.2217v7.4157h-2.2217z"/>
  <path transform="translate(11.035 -1.5259e-5)" d="m67.911 206.72h2.2217v13.266h-2.2217z"/>
  <path d="m73.391 206.72h2.2217v13.266h-2.2217z"/>
  <path transform="matrix(5.4394e-17 1 -1 6.8926e-17 .009222 -1.5259e-5)" d="m212-43.903h2.2217v11.785h-2.2217z"/>
  <path transform="matrix(5.4394e-17 1 -1 6.8926e-17 0 0)" d="m212-69.772h2.2217v11.785h-2.2217z"/>
  <path d="m57.987 212.57h2.2217v7.4157h-2.2217z"/>
  <path d="m57.987 212.57h2.2217v7.4157h-2.2217z"/>
  <path d="m57.987 212.57h2.2217v7.4157h-2.2217z"/>
  <path transform="translate(-.17213 -1.5259e-5)" d="m32.299 212.57h2.2217v7.4157h-2.2217z"/>
  <path d="m51.082 212.57h2.2217v7.4157h-2.2217z"/>
  <path transform="translate(0 -1.5259e-5)" d="m41.691 212.57h2.2217v7.4157h-2.2217z"/>
  <path transform="matrix(4.598e-17 1 -1 8.1539e-17 0 0)" d="m217.76-52.641h2.2217v9.9621h-2.2217z"/>
  <path transform="matrix(2.9152e-17 1 -1 1.2861e-16 0 0)" d="m212-53.304h2.2217v6.3161h-2.2217z"/>
 </g>
 <g transform="matrix(1.4724 0 0 1.4724 -39.296 -165.4)" fill="#fff" fill-rule="evenodd" font-size="12">
  <path d="m32.067 206.72h32.289v2.2217h-32.289z"/>
  <path d="m36.881 217.83h2.2217v2.1576h-2.2217z"/>
  <path transform="matrix(2.9784e-17 1 -1 1.2588e-16 0 0)" d="m217.76-64.44h2.2217v6.453h-2.2217z"/>
  <path d="m67.911 206.72h2.2217v13.266h-2.2217z"/>
  <path transform="matrix(5.6445e-17 1 -1 6.6421e-17 0 0)" d="m217.76-80.765h2.2217v12.229h-2.2217z"/>
  <path d="m57.987 212.57h2.2217v7.4157h-2.2217z"/>
  <path transform="translate(11.035 -1.5259e-5)" d="m67.911 206.72h2.2217v13.266h-2.2217z"/>
  <path d="m73.391 206.72h2.2217v13.266h-2.2217z"/>
  <path transform="matrix(5.4394e-17 1 -1 6.8926e-17 .009222 -1.5259e-5)" d="m212-43.903h2.2217v11.785h-2.2217z"/>
  <path transform="matrix(5.4394e-17 1 -1 6.8926e-17 0 0)" d="m212-69.772h2.2217v11.785h-2.2217z"/>
  <path d="m57.987 212.57h2.2217v7.4157h-2.2217z"/>
  <path d="m57.987 212.57h2.2217v7.4157h-2.2217z"/>
  <path d="m57.987 212.57h2.2217v7.4157h-2.2217z"/>
  <path transform="translate(-.17213 -1.5259e-5)" d="m32.299 212.57h2.2217v7.4157h-2.2217z"/>
  <path d="m51.082 212.57h2.2217v7.4157h-2.2217z"/>
  <path transform="translate(0 -1.5259e-5)" d="m41.691 212.57h2.2217v7.4157h-2.2217z"/>
  <path transform="matrix(4.598e-17 1 -1 8.1539e-17 0 0)" d="m217.76-52.641h2.2217v9.9621h-2.2217z"/>
  <path transform="matrix(2.9152e-17 1 -1 1.2861e-16 0 0)" d="m212-53.304h2.2217v6.3161h-2.2217z"/>
 </g>
 <g transform="translate(0 171.39)" fill="#d90000" fill-rule="evenodd">
  <path d="m119.3 157.55h5.8601v10.178h-5.8601z"/>
  <path d="m274.84 157.55h5.8601v10.178h-5.8601z"/>
  <path d="m-0.04241 157.55h5.8601v10.178h-5.8601z"/>
  <path transform="translate(39.591 -1.5259e-5)" d="m39.308 157.55h5.8601v10.178h-5.8601z"/>
  <path transform="translate(117.97 -1.5259e-5)" d="m39.308 157.55h5.8601v10.178h-5.8601z"/>
  <path transform="translate(156.75 -1.5259e-5)" d="m39.308 157.55h5.8601v10.178h-5.8601z"/>
  <path transform="translate(196.34 -1.5259e-5)" d="m39.308 157.55h5.8601v10.178h-5.8601z"/>
  <path d="m313.62 157.55h5.8601v10.178h-5.8601z"/>
  <path d="m510.36 157.55h5.8601v10.178h-5.8601z"/>
  <path transform="translate(313.9 -1.5259e-5)" d="m39.308 157.55h5.8601v10.178h-5.8601z"/>
  <path transform="translate(352.69 -1.5259e-5)" d="m39.308 157.55h5.8601v10.178h-5.8601z"/>
  <path transform="translate(391.87 -1.5259e-5)" d="m39.308 157.55h5.8601v10.178h-5.8601z"/>
  <path transform="translate(431.06 -1.5259e-5)" d="m39.308 157.55h5.8601v10.178h-5.8601z"/>
  <path d="m783.46 157.55h5.8601v10.178h-5.8601z"/>
  <path transform="translate(509.03 -1.5259e-5)" d="m39.308 157.55h5.8601v10.178h-5.8601z"/>
  <path transform="translate(548.62 -1.5259e-5)" d="m39.308 157.55h5.8601v10.178h-5.8601z"/>
  <path transform="translate(588.62 -1.5259e-5)" d="m39.308 157.55h5.8601v10.178h-5.8601z"/>
  <path transform="translate(626.19 -1.5259e-5)" d="m39.308 157.55h5.8601v10.178h-5.8601z"/>
  <path transform="translate(666.18 -1.5259e-5)" d="m39.308 157.55h5.8601v10.178h-5.8601z"/>
  <path transform="translate(705.37 -1.5259e-5)" d="m39.308 157.55h5.8601v10.178h-5.8601z"/>
  <path d="m860.63 157.55h5.8601v10.178h-5.8601z"/>
  <path transform="translate(783.75 -1.5259e-5)" d="m39.308 157.55h5.8601v10.178h-5.8601z"/>
  <path d="m39.308 157.55h5.8601v10.178h-5.8601z"/>
 </g>
 <g transform="translate(0 -1.5259e-5)" fill="#239e3f" fill-rule="evenodd">
  <path d="m119.3 157.55h5.8601v10.178h-5.8601z"/>
  <path d="m274.84 157.55h5.8601v10.178h-5.8601z"/>
  <path d="m-0.04241 157.55h5.8601v10.178h-5.8601z"/>
  <path transform="translate(39.591 -1.5259e-5)" d="m39.308 157.55h5.8601v10.178h-5.8601z"/>
  <path transform="translate(117.97 -1.5259e-5)" d="m39.308 157.55h5.8601v10.178h-5.8601z"/>
  <path transform="translate(156.75 -1.5259e-5)" d="m39.308 157.55h5.8601v10.178h-5.8601z"/>
  <path transform="translate(196.34 -1.5259e-5)" d="m39.308 157.55h5.8601v10.178h-5.8601z"/>
  <path d="m313.62 157.55h5.8601v10.178h-5.8601z"/>
  <path d="m510.36 157.55h5.8601v10.178h-5.8601z"/>
  <path transform="translate(313.9 -1.5259e-5)" d="m39.308 157.55h5.8601v10.178h-5.8601z"/>
  <path transform="translate(352.69 -1.5259e-5)" d="m39.308 157.55h5.8601v10.178h-5.8601z"/>
  <path transform="translate(391.87 -1.5259e-5)" d="m39.308 157.55h5.8601v10.178h-5.8601z"/>
  <path transform="translate(431.06 -1.5259e-5)" d="m39.308 157.55h5.8601v10.178h-5.8601z"/>
  <path d="m783.46 157.55h5.8601v10.178h-5.8601z"/>
  <path transform="translate(509.03 -1.5259e-5)" d="m39.308 157.55h5.8601v10.178h-5.8601z"/>
  <path transform="translate(548.62 -1.5259e-5)" d="m39.308 157.55h5.8601v10.178h-5.8601z"/>
  <path transform="translate(588.62 -1.5259e-5)" d="m39.308 157.55h5.8601v10.178h-5.8601z"/>
  <path transform="translate(626.19 -1.5259e-5)" d="m39.308 157.55h5.8601v10.178h-5.8601z"/>
  <path transform="translate(666.18 -1.5259e-5)" d="m39.308 157.55h5.8601v10.178h-5.8601z"/>
  <path transform="translate(705.37 -1.5259e-5)" d="m39.308 157.55h5.8601v10.178h-5.8601z"/>
  <path d="m860.63 157.55h5.8601v10.178h-5.8601z"/>
  <path transform="translate(783.75 -1.5259e-5)" d="m39.308 157.55h5.8601v10.178h-5.8601z"/>
  <path d="m39.308 157.55h5.8601v10.178h-5.8601z"/>
 </g>
 <g transform="translate(11.919 -515.45)" fill="#da0000" fill-rule="evenodd">
  <path d="m445.16 706.81c8.19 10.039 33.438 65.548-15.241 101.91-22.884 17.223-8.714 18.093-8.037 20.988 36.785-19.539 48.799-46.013 48.52-69.727-0.28-23.715-12.853-44.669-25.242-53.167z"/>
  <path d="m450.03 704.23c18.166 9.301 57.701 56.079 15.149 108.85 26.439-5.868 60.053-83.729-15.149-108.85z"/>
  <path d="m394.24 704.23c-18.166 9.301-57.701 56.079-15.149 108.85-26.439-5.868-60.053-83.729 15.149-108.85z"/>
  <path d="m399.04 706.81c-8.19 10.039-33.438 65.548 15.241 101.91 22.884 17.223 8.714 18.093 8.037 20.988-36.785-19.539-48.799-46.013-48.52-69.727 0.28-23.715 12.853-44.669 25.242-53.167z"/>
  <path d="m468.8 824.65c-14.398 0.228-32.549-1.984-46.01-8.979 2.217 4.311 4.059 7.026 6.276 11.337 12.838 1.184 30.554 2.649 39.734-2.358z"/>
  <path d="m376.78 824.65c14.398 0.228 32.549-1.984 46.01-8.979-2.217 4.311-4.059 7.026-6.276 11.337-12.838 1.184-30.554 2.649-39.734-2.358z"/>
  <path d="m403.19 690.25c2.917 7.753 10.57 8.88 18.762 4.315 5.97 3.582 15.202 3.809 18.386-3.94 2.421 19.169-17.736 14.634-18.487 10.882-7.504 7.254-21.475 3.064-18.661-11.257z"/>
  <path d="m422.49 836.72 7.57-8.652 1.082-116.44-9.012-7.931-9.012 7.57 1.802 117.16 7.57 8.291z"/>
 </g>
</svg>
